<?xml version="1.0" standalone="no"?>
<!DOCTYPE svg PUBLIC "-//W3C//DTD SVG 20010904//EN"
 "http://www.w3.org/TR/2001/REC-SVG-20010904/DTD/svg10.dtd">
<svg version="1.0" xmlns="http://www.w3.org/2000/svg"
 width="1280.000000pt" height="1278.000000pt" viewBox="0 0 1280.000000 1278.000000"
 preserveAspectRatio="xMidYMid meet">
<metadata>
Created by potrace 1.15, written by Peter Selinger 2001-2017
</metadata>
<g transform="translate(0.000000,1278.000000) scale(0.100000,-0.100000)"
fill="#000000" stroke="none">
<path d="M7675 12774 c-16 -2 -70 -9 -120 -15 -432 -52 -803 -241 -1058 -537
-81 -94 -187 -248 -237 -343 l-33 -65 -105 -27 c-522 -137 -950 -454 -1216
-899 -203 -341 -309 -788 -293 -1235 6 -145 10 -173 36 -253 56 -167 142 -306
268 -435 278 -285 700 -462 1231 -517 67 -7 122 -15 122 -19 0 -3 -58 -125
-129 -270 -429 -877 -754 -1764 -1052 -2868 -129 -477 -320 -1341 -412 -1861
l-13 -75 -360 -6 c-822 -15 -1409 -69 -3149 -293 -275 -36 -639 -81 -810 -101
-170 -20 -313 -39 -316 -43 -12 -14 -29 -76 -29 -107 0 -63 22 -76 160 -91
378 -41 833 -60 1690 -69 888 -9 1269 -31 1745 -101 289 -42 645 -121 870
-193 60 -19 60 -19 59 -57 0 -22 -4 -59 -8 -84 l-8 -45 179 -63 c564 -201
1181 -331 1863 -393 228 -20 612 -39 951 -45 l357 -7 66 -88 c104 -139 231
-282 397 -445 308 -301 509 -451 1262 -943 l278 -181 50 21 c49 22 89 59 89
85 0 13 -163 275 -262 421 -82 122 -183 242 -321 382 l-132 134 93 -64 c52
-35 196 -142 320 -238 383 -295 594 -425 802 -495 96 -32 133 -36 137 -16 2 9
-19 53 -46 98 -150 247 -377 477 -741 755 -172 131 -173 131 -140 124 21 -5
712 -123 760 -130 42 -6 -1 110 -71 194 -84 100 -195 167 -536 319 -327 147
-443 210 -385 210 10 0 92 7 183 15 90 8 223 20 294 26 151 12 305 33 424 55
74 15 95 15 190 3 138 -18 571 -19 706 -1 163 22 381 59 700 121 165 33 344
67 398 76 108 19 146 39 125 67 -11 14 -78 23 -398 52 -212 20 -396 36 -410
36 -50 0 0 20 250 100 417 133 560 187 710 267 107 57 130 78 130 118 0 42
-33 71 -93 79 -87 13 -370 8 -502 -9 -71 -8 -236 -33 -365 -55 -129 -22 -235
-38 -237 -36 -2 1 107 73 241 159 l243 157 -8 42 c-4 24 -8 47 -9 52 0 5 -58
6 -137 3 -181 -8 -350 -44 -725 -151 -164 -47 -316 -87 -338 -88 l-41 -3 -189
470 -190 470 0 125 c0 69 -3 242 -7 386 l-6 260 -85 44 c-142 73 -197 142
-155 198 28 39 125 87 226 114 l87 23 31 80 c17 44 94 242 170 439 77 197 141
368 142 378 2 16 -21 28 -123 69 -141 56 -325 147 -446 220 l-82 49 -48 -22
c-92 -42 -201 -24 -306 48 -76 53 -123 167 -116 280 2 35 7 66 11 70 11 11
167 33 289 40 113 7 118 6 160 -19 24 -14 90 -63 147 -109 300 -243 400 -298
584 -326 70 -11 81 -2 66 54 -38 134 -151 262 -379 427 -127 92 -210 160 -210
173 0 3 127 2 283 -2 310 -7 383 -1 495 43 98 39 99 65 10 150 -77 74 -177
105 -428 133 -189 22 -218 26 -268 42 -33 10 -33 10 -15 30 10 11 77 60 149
109 188 127 249 201 242 294 -3 39 -4 40 -45 43 -99 7 -246 -45 -357 -126 -28
-20 -118 -97 -200 -170 -83 -73 -173 -148 -200 -166 l-51 -35 -332 -3 c-183
-2 -333 0 -333 4 0 3 -7 64 -15 135 -45 389 -57 909 -30 1298 28 396 25 375
48 375 41 0 351 -32 562 -58 l220 -28 7 -294 c4 -162 10 -404 14 -537 l6 -242
53 -12 c80 -18 311 -6 409 20 108 30 134 45 144 83 10 40 29 47 43 15 9 -20
24 -27 70 -37 80 -17 148 -7 235 34 l72 34 7 109 c11 158 -14 597 -41 712 -4
19 -2 22 12 17 36 -14 361 -26 554 -21 327 9 497 36 700 112 114 43 346 157
378 186 29 27 28 56 -8 126 -26 52 -37 63 -97 97 -171 95 -323 208 -573 422
-190 164 -200 169 -265 131 -32 -19 -37 -20 -58 -6 -46 32 -271 222 -274 232
-2 6 96 120 217 255 174 194 216 246 204 253 -18 10 3 28 -286 -226 l-238
-208 -59 48 c-33 26 -58 53 -57 58 2 6 134 208 293 450 159 242 292 445 296
452 4 6 3 14 -2 17 -5 4 -161 -187 -346 -424 l-336 -430 -69 52 -68 53 125
243 c69 134 122 246 118 250 -9 9 -18 -2 -180 -232 -76 -108 -142 -196 -147
-196 -5 0 -41 22 -81 49 -75 50 -212 133 -402 241 -60 34 -111 63 -112 64 -1
1 10 25 24 54 48 97 43 280 -9 387 -21 41 -75 105 -90 105 -5 0 -34 26 -66 59
-113 115 -275 166 -406 126 -102 -31 -208 -113 -267 -208 -18 -29 -34 -54 -35
-56 -2 -2 -15 6 -29 18 -28 21 -46 25 -147 36 -41 5 -58 11 -58 21 0 8 -19 69
-41 137 -249 738 -813 1232 -1429 1252 -63 2 -128 2 -145 -1z"/>
</g>
</svg>
